<svg width="86" height="24" viewBox="0 0 86 24" fill="none" xmlns="http://www.w3.org/2000/svg">
<path d="M22 12C22 6.48 17.52 2 12 2C6.48 2 2 6.48 2 12C2 16.84 5.44 20.87 10 21.8V15H8V12H10V9.5C10 7.57 11.57 6 13.5 6H16V9H14C13.45 9 13 9.45 13 10V12H16V15H13V21.95C18.05 21.45 22 17.19 22 12Z" fill="#1E1E1E"/>
<path d="M46 12C46 12.5933 45.8241 13.1734 45.4944 13.6667C45.1648 14.1601 44.6962 14.5446 44.1481 14.7716C43.5999 14.9987 42.9967 15.0581 42.4147 14.9424C41.8328 14.8266 41.2982 14.5409 40.8787 14.1213C40.4591 13.7018 40.1734 13.1672 40.0576 12.5853C39.9419 12.0033 40.0013 11.4001 40.2284 10.8519C40.4554 10.3038 40.8399 9.83524 41.3333 9.50559C41.8266 9.17595 42.4067 9 43 9C43.7949 9.00247 44.5565 9.31934 45.1186 9.88141C45.6807 10.4435 45.9975 11.2051 46 12ZM52.375 7.875V16.125C52.375 17.5174 51.8219 18.8527 50.8373 19.8373C49.8527 20.8219 48.5174 21.375 47.125 21.375H38.875C37.4826 21.375 36.1473 20.8219 35.1627 19.8373C34.1781 18.8527 33.625 17.5174 33.625 16.125V7.875C33.625 6.48261 34.1781 5.14726 35.1627 4.16269C36.1473 3.17812 37.4826 2.625 38.875 2.625H47.125C48.5174 2.625 49.8527 3.17812 50.8373 4.16269C51.8219 5.14726 52.375 6.48261 52.375 7.875ZM47.5 12C47.5 11.11 47.2361 10.24 46.7416 9.49993C46.2471 8.75991 45.5443 8.18314 44.7221 7.84254C43.8998 7.50195 42.995 7.41283 42.1221 7.58647C41.2492 7.7601 40.4474 8.18868 39.818 8.81802C39.1887 9.44736 38.7601 10.2492 38.5865 11.1221C38.4128 11.995 38.5019 12.8998 38.8425 13.7221C39.1831 14.5443 39.7599 15.2471 40.4999 15.7416C41.24 16.2361 42.11 16.5 43 16.5C44.1935 16.5 45.3381 16.0259 46.182 15.182C47.0259 14.3381 47.5 13.1935 47.5 12ZM49 7.125C49 6.9025 48.934 6.68499 48.8104 6.49998C48.6868 6.31498 48.5111 6.17078 48.3055 6.08564C48.1 6.00049 47.8738 5.97821 47.6555 6.02162C47.4373 6.06502 47.2368 6.17217 47.0795 6.3295C46.9222 6.48684 46.815 6.68729 46.7716 6.90552C46.7282 7.12375 46.7505 7.34995 46.8356 7.55552C46.9208 7.76109 47.065 7.93679 47.25 8.0604C47.435 8.18402 47.6525 8.25 47.875 8.25C48.1734 8.25 48.4595 8.13147 48.6705 7.9205C48.8815 7.70952 49 7.42337 49 7.125Z" fill="#1E1E1E"/>
<path d="M74 2.05444C68.5072 2.05444 64.0545 6.50713 64.0545 12C64.0545 17.4928 68.5072 21.9455 74 21.9455C79.4928 21.9455 83.9455 17.4928 83.9455 12C83.9455 6.50713 79.4928 2.05444 74 2.05444ZM71.5654 16.1222H69.5514V9.641H71.5654V16.1222ZM70.546 8.84536C69.9099 8.84536 69.4986 8.3947 69.4986 7.83734C69.4986 7.26858 69.9223 6.83139 70.5719 6.83139C71.2215 6.83139 71.6193 7.26858 71.6317 7.83734C71.6317 8.3947 71.2215 8.84536 70.546 8.84536ZM78.9209 16.1222H76.907V12.5304C76.907 11.6943 76.6148 11.1266 75.8865 11.1266C75.3302 11.1266 74.9997 11.511 74.8536 11.8808C74.7998 12.0124 74.7863 12.1989 74.7863 12.3843V16.1211H72.7713V11.7078C72.7713 10.8987 72.7454 10.2222 72.7185 9.63996H74.4682L74.5605 10.5402H74.6009C74.8661 10.1176 75.5156 9.49389 76.6024 9.49389C77.9274 9.49389 78.9209 10.3817 78.9209 12.29V16.1222Z" fill="#1E1E1E"/>
</svg>
